<?xml version="1.0" encoding="utf-8"?>
<!-- Generator: Adobe Illustrator 27.6.1, SVG Export Plug-In . SVG Version: 6.00 Build 0)  -->
<svg width="358px" height="75px" version="1.1" id="Calque_1" xmlns="http://www.w3.org/2000/svg" xmlns:xlink="http://www.w3.org/1999/xlink" x="0px" y="0px"
	 viewBox="0 0 358 75.1" style="enable-background:new 0 0 358 75.1;" xml:space="preserve">
<style type="text/css">
	.st0{clip-path:url(#SVGID_00000050621419987731848810000009947938866474544770_);}
	.st1{fill:#026BB2;}
	.st2{fill:#A1B8DF;}
	.st3{fill:#FFFFFF;}
</style>
<g>
	<g id="Calque_1_00000070096789988382251030000018145780320875213456_">
		<g id="Calque_1-2">
			<g>
				<g>
					<g>
						<defs>
							<rect id="SVGID_1_" y="0.1" width="75" height="75"/>
						</defs>
						<clipPath id="SVGID_00000054256473356366549340000004963321511243766439_">
							<use xlink:href="#SVGID_1_"  style="overflow:visible;"/>
						</clipPath>
						<g style="clip-path:url(#SVGID_00000054256473356366549340000004963321511243766439_);">
							<rect class="st1" width="75" height="75"/>
						</g>
					</g>
					<polyline class="st2" points="40,44.8 45.5,44.8 45.5,39.4 40,44.8 					"/>
					<polyline class="st3" points="30,26.9 30,30.1 32.6,30.1 32.6,45 30,45 30,48.2 45.5,48.2 45.5,44.8 37.7,44.8 37.7,30.1 
						40.5,30.1 40.5,26.9 30,26.9 					"/>
					<path class="st3" d="M23.2,47.3c1.9-1.5,2.3-3.2,2.3-5.8V30.2h2.7V27h-7.9v3.2H22v12c0,1.7-1.4,3-3,3s-3-1.4-3-3v-12h1.9V27
						H8.5v3.2h2.4v11.2c0,2.3,0,3.6,1.3,5.3c1.1,1.5,3,2.3,6.1,2.3S22.1,48.4,23.2,47.3"/>
					<path class="st3" d="M57.1,44.8c2.2,0,3.2-1.1,3.2-3s-1.3-3.3-3.2-3.3h-2v6.3H57.1 M56.9,35.6c1.7,0,2.7-1,2.7-2.7
						c0-1.7-1.1-2.8-2.7-2.8h-1.8v5.4L56.9,35.6L56.9,35.6z M63.2,37.5c1.5,1,2.5,2.7,2.5,4.8c0,3.2-3.2,5.9-6.2,5.9h-12v-3.3h2.4
						V30.1h-2.6v-3.2h12.2c3,0,5.4,2.3,5.4,5.2c0,2.9-0.6,2.9-1.7,3.8c-0.7,0.6-1.4,0.9-1.4,0.9S62.5,36.8,63.2,37.5L63.2,37.5
						L63.2,37.5z"/>
				</g>
				<g>
					<path d="M91.2,7.9H86v4.4h4.2v1.6H86v6.7h-2V6.2h7.5L91.2,7.9L91.2,7.9L91.2,7.9z"/>
					<path d="M100.8,20.6l-1.3-4.1h-5l-1.2,4.1h-2.1l4.7-14.4h2.5l4.6,14.4H100.8z M97.2,8.2L97.2,8.2c-0.3,0.8-1.8,6-2.1,6.6h4
						C98.8,14.1,97.3,9,97.2,8.2z"/>
					<path d="M110.3,20.8c-1.9,0-3.4-0.8-4.5-2.1c-1-1.3-1.6-3-1.6-5.1s0.3-3.1,0.9-4.3c1.1-2,3-3.3,5.2-3.3s2.6,0.4,3.5,1.1l-1,1.3
						c-0.8-0.6-1.6-0.8-2.5-0.8c-1.4,0-2.5,0.7-3.2,2.1c-0.5,0.9-0.7,2.1-0.7,3.9s0.2,2.5,0.5,3.4c0.7,1.6,2,2.3,3.5,2.3
						c1.5,0,1.9-0.3,2.6-0.9l1,1.3c-1.1,0.8-2.4,1.2-3.9,1.2L110.3,20.8L110.3,20.8z"/>
					<path d="M125.6,19.1c-0.7,0.9-1.9,1.7-4.1,1.7s-3.6-0.7-4.3-2c-0.4-0.7-0.5-1.1-0.5-2.6v-10h2v9.3c0,1,0.1,2.3,0.5,2.8
						c0.4,0.5,1.1,0.8,2.3,0.8s1.9-0.3,2.3-0.9c0.4-0.5,0.5-1.2,0.5-2.4V6.2h2v9.9C126.3,17.9,126.2,18.3,125.6,19.1
						C125.6,19.1,125.6,19.1,125.6,19.1z"/>
					<path d="M137,20.6h-7.2V6.2h2v12.7h5.5L137,20.6z"/>
					<path d="M146,7.9h-3.7v12.7h-2V7.9h-3.7V6.2h9.6L146,7.9L146,7.9L146,7.9z"/>
					<path d="M147.7,20.6V6.2h7.8l-0.3,1.6h-5.5v4.4h4.6v1.7h-4.6v4.9h6v1.7L147.7,20.6L147.7,20.6z M150.1,5.5l-0.6-1.1l4.2-2.8
						l0.9,1.8L150.1,5.5L150.1,5.5z"/>
					<path d="M171.3,18.6c-1,1.2-2.3,1.9-4.8,1.9h-3.6V6.2h3.3c2.5,0,4.1,0.6,5.4,2.4c0.9,1.2,1.3,2.8,1.3,4.8
						S172.3,17.4,171.3,18.6L171.3,18.6L171.3,18.6z M169.5,9.1c-0.8-1-1.6-1.3-3-1.3h-1.6v11.1h1.6c1.6,0,2.7-0.4,3.4-1.6
						c0.5-1,0.8-2.2,0.8-3.7S170.5,10.1,169.5,9.1L169.5,9.1L169.5,9.1z"/>
					<path d="M176,20.6V6.2h7.8l-0.3,1.6H178v4.4h4.6v1.7H178v4.9h6v1.7L176,20.6L176,20.6z"/>
					<path d="M198.4,14.1c-0.7,0.6-1.5,0.9-3,0.9H193v5.6h-2V6.2h3.8c1.9,0,2.6,0.2,3.4,0.7c1.2,0.8,1.9,2,1.9,3.5
						S199.6,13.1,198.4,14.1L198.4,14.1L198.4,14.1z M197.2,8.6c-0.5-0.5-1.2-0.7-2.3-0.7H193v5.5h2.2c1,0,1.6-0.2,2.1-0.8
						c0.4-0.5,0.6-1.1,0.6-1.9S197.7,9.1,197.2,8.6L197.2,8.6L197.2,8.6z"/>
					<path d="M206.2,20.8c-1.6,0-3.2-0.4-4.6-1.3l0.8-1.5c1.2,0.8,2.4,1.2,3.9,1.2c1.5,0,3.1-1,3.1-2.5s-0.8-2-2.4-2.4l-1.5-0.4
						c-2.2-0.6-3.4-1.7-3.4-3.7S204,6,206.8,6c2.8,0,3.1,0.5,4.4,1.4l-0.9,1.4c-1.3-0.8-2.2-1.1-3.4-1.1c-1.2,0-2.6,0.8-2.6,2.2
						s0.6,1.6,2.1,2.1l1.7,0.5c1.9,0.6,3.5,1.8,3.5,4S210,21,206.2,21L206.2,20.8L206.2,20.8z"/>
					<path d="M219,14.9v5.7h-2.1v-5.7l-4.5-8.6h2.5l2.4,4.9c0.3,0.6,0.6,1.2,0.8,1.9c0.3-0.6,0.5-1.2,0.8-1.8l2.4-4.9h2.3L219,14.9
						L219,14.9L219,14.9z"/>
					<path d="M230,20.8c-1.9,0-3.4-0.8-4.5-2.1c-1-1.3-1.6-3-1.6-5.1s0.3-3.1,0.9-4.3c1.1-2,3-3.3,5.2-3.3c2.2,0,2.6,0.4,3.5,1.1
						l-1,1.3c-0.8-0.6-1.6-0.8-2.5-0.8c-1.4,0-2.5,0.7-3.2,2.1c-0.5,0.9-0.7,2.1-0.7,3.9s0.2,2.5,0.5,3.4c0.7,1.6,2,2.3,3.5,2.3
						c1.5,0,1.9-0.3,2.6-0.9l1,1.3c-1.1,0.8-2.4,1.2-3.9,1.2L230,20.8L230,20.8z"/>
					<path d="M243.9,20.6v-6.8h-5.5v6.8h-2V6.2h2v5.9h5.5V6.2h2v14.4H243.9z"/>
					<path d="M255,20.8c-4,0-5.9-3.1-5.9-7.5s2.3-7.4,5.8-7.4c3.5,0,5.9,3.5,5.9,7.5S258.7,20.7,255,20.8L255,20.8L255,20.8z
						 M254.9,7.5c-2.5,0-3.6,1.9-3.6,5.6s0.9,6.2,3.7,6.2s3.5-1.6,3.5-5.6S257.6,7.6,254.9,7.5L254.9,7.5L254.9,7.5z"/>
					<path d="M271.1,20.6h-7.2V6.2h2v12.7h5.5L271.1,20.6z"/>
					<path d="M278.3,20.8c-4,0-5.9-3.1-5.9-7.5s2.3-7.4,5.8-7.4c3.5,0,5.9,3.5,5.9,7.5S281.9,20.7,278.3,20.8L278.3,20.8L278.3,20.8
						z M278.2,7.5c-2.5,0-3.6,1.9-3.6,5.6s0.9,6.2,3.7,6.2s3.5-1.6,3.5-5.6S280.9,7.6,278.2,7.5L278.2,7.5L278.2,7.5z"/>
					<path d="M292.7,20.8c-1.9,0-3.4-0.6-4.5-1.9c-1.1-1.3-1.7-3-1.7-5.4s0.8-4.9,2.5-6.2c1-0.9,2.2-1.2,3.6-1.2
						c1.4,0,2.9,0.5,4.1,1.4l-1,1.2c-1.1-0.8-2-1.1-3.1-1.1c-1.1,0-2.5,0.5-3.1,1.8c-0.7,1.4-0.8,2.4-0.8,4.1s0.4,3.5,1,4.3
						c0.6,0.8,1.9,1.3,3.1,1.3c1.2,0,1.5-0.2,2.1-0.5v-4.1h-2.6l-0.3-1.6h5v6.7C295.8,20.3,294.3,20.7,292.7,20.8L292.7,20.8
						L292.7,20.8z"/>
					<path d="M300.6,20.6V6.2h2v14.4H300.6z"/>
					<path d="M306.4,20.6V6.2h7.8l-0.3,1.6h-5.5v4.4h4.6v1.7h-4.6v4.9h6v1.7L306.4,20.6L306.4,20.6z"/>
					<path d="M317.2,23.5l-0.7-0.9c0.8-0.3,1.4-1,1.4-1.6c0-0.6-0.3-0.4-0.6-0.6c-0.3-0.2-0.7-0.5-0.7-1.2s0.7-1.6,1.5-1.6
						s1.7,0.9,1.7,2.1S318.7,22.8,317.2,23.5L317.2,23.5L317.2,23.5z"/>
					<path d="M92.4,44.5c-1,1.2-2.3,1.9-4.8,1.9H84V32.1h3.3c2.5,0,4.1,0.6,5.4,2.4c0.9,1.2,1.3,2.8,1.3,4.8
						C94,41.2,93.4,43.2,92.4,44.5L92.4,44.5L92.4,44.5z M90.7,35.1c-0.8-1-1.6-1.3-3-1.3h-1.6v11.1h1.6c1.6,0,2.7-0.4,3.4-1.6
						c0.5-1,0.8-2.2,0.8-3.7C91.9,38,91.7,36.1,90.7,35.1L90.7,35.1L90.7,35.1z"/>
					<path d="M97.1,46.5V32.2h7.8l-0.3,1.6h-5.5v4.4h4.6v1.7h-4.6v4.9h6v1.7L97.1,46.5L97.1,46.5z"/>
					<path d="M111.4,46.7c-1.6,0-3.2-0.4-4.6-1.3l0.8-1.5c1.2,0.8,2.4,1.2,3.9,1.2s3.1-1,3.1-2.5c0-1.5-0.8-2-2.4-2.4l-1.5-0.4
						c-2.2-0.6-3.4-1.7-3.4-3.7s1.9-4.2,4.7-4.2s3.1,0.5,4.4,1.4l-0.9,1.4c-1.3-0.8-2.2-1.1-3.4-1.1c-1.2,0-2.6,0.8-2.6,2.2
						c0,1.4,0.6,1.6,2.1,2.1l1.7,0.5c1.9,0.6,3.5,1.8,3.5,4s-1.6,4.5-5.4,4.5C111.4,46.9,111.4,46.7,111.4,46.7z"/>
					<path d="M127.6,46.7c-1.6,0-3.2-0.4-4.6-1.3l0.8-1.5c1.2,0.8,2.4,1.2,3.9,1.2s3.1-1,3.1-2.5c0-1.5-0.8-2-2.4-2.4l-1.5-0.4
						c-2.2-0.6-3.4-1.7-3.4-3.7s1.9-4.2,4.7-4.2c2.8,0,3.1,0.5,4.4,1.4l-0.9,1.4c-1.3-0.8-2.2-1.1-3.4-1.1c-1.2,0-2.6,0.8-2.6,2.2
						c0,1.4,0.6,1.6,2.1,2.1l1.7,0.5c1.9,0.6,3.5,1.8,3.5,4s-1.6,4.5-5.4,4.5L127.6,46.7L127.6,46.7z"/>
					<path d="M141.4,46.7c-1.9,0-3.4-0.8-4.5-2.1c-1-1.3-1.6-3-1.6-5.1s0.3-3.1,0.9-4.3c1.1-2,3-3.3,5.2-3.3c2.2,0,2.6,0.4,3.5,1.1
						l-1,1.3c-0.8-0.6-1.6-0.8-2.5-0.8c-1.4,0-2.5,0.7-3.2,2.1c-0.5,0.9-0.7,2.1-0.7,3.9s0.2,2.5,0.5,3.4c0.7,1.6,2,2.3,3.5,2.3
						c1.5,0,1.9-0.3,2.6-0.9l1,1.3c-1.1,0.8-2.4,1.2-3.9,1.2L141.4,46.7L141.4,46.7z"/>
					<path d="M147.9,46.5V32.2h2v14.4H147.9z"/>
					<path d="M153.7,46.5V32.2h7.8l-0.3,1.6h-5.5v4.4h4.6v1.7h-4.6v4.9h6v1.7L153.7,46.5L153.7,46.5z"/>
					<path d="M171.8,46.5l-3.8-7.6c-0.7-1.5-1.5-3.1-1.7-3.9h-0.1c0.1,1.2,0.1,2.7,0.2,4v7.5h-1.9V32.2h2.3l4,7.9
						c0.6,1.2,1.3,3,1.4,3.4h0.1c0-0.5-0.2-2.7-0.2-4.3v-7h1.9v14.4H171.8z"/>
					<path d="M183,46.7c-1.9,0-3.4-0.8-4.5-2.1c-1-1.3-1.6-3-1.6-5.1s0.3-3.1,0.9-4.3c1.1-2,3-3.3,5.2-3.3c2.2,0,2.6,0.4,3.5,1.1
						l-1,1.3c-0.8-0.6-1.6-0.8-2.5-0.8c-1.4,0-2.5,0.7-3.2,2.1c-0.5,0.9-0.7,2.1-0.7,3.9s0.2,2.5,0.5,3.4c0.7,1.6,2,2.3,3.5,2.3
						c1.5,0,1.9-0.3,2.6-0.9l1,1.3c-1.1,0.8-2.4,1.2-3.9,1.2L183,46.7L183,46.7z"/>
					<path d="M189.6,46.5V32.2h7.8l-0.3,1.6h-5.5v4.4h4.6v1.7h-4.6v4.9h6v1.7L189.6,46.5L189.6,46.5z"/>
					<path d="M203.9,46.7c-1.6,0-3.2-0.4-4.6-1.3l0.8-1.5c1.2,0.8,2.4,1.2,3.9,1.2c1.5,0,3.1-1,3.1-2.5c0-1.5-0.8-2-2.4-2.4
						l-1.5-0.4c-2.2-0.6-3.4-1.7-3.4-3.7s1.9-4.2,4.7-4.2c2.8,0,3.1,0.5,4.4,1.4l-0.9,1.4c-1.3-0.8-2.2-1.1-3.4-1.1
						c-1.2,0-2.6,0.8-2.6,2.2c0,1.4,0.6,1.6,2.1,2.1l1.7,0.5c1.9,0.6,3.5,1.8,3.5,4s-1.6,4.5-5.4,4.5L203.9,46.7L203.9,46.7z"/>
					<path d="M225,44.5c-1,1.2-2.3,1.9-4.8,1.9h-3.6V32.1h3.3c2.5,0,4.1,0.6,5.4,2.4c0.9,1.2,1.3,2.8,1.3,4.8
						C226.6,41.2,226,43.2,225,44.5L225,44.5L225,44.5z M223.3,35.1c-0.8-1-1.6-1.3-3-1.3h-1.6v11.1h1.6c1.6,0,2.7-0.4,3.4-1.6
						c0.5-1,0.8-2.2,0.8-3.7C224.5,38,224.3,36.1,223.3,35.1L223.3,35.1L223.3,35.1z"/>
					<path d="M229.7,46.5V32.2h7.8l-0.3,1.6h-5.5v4.4h4.6v1.7h-4.6v4.9h6v1.7L229.7,46.5L229.7,46.5z"/>
					<path d="M251.9,46.5h-7.2V32.2h2v12.7h5.5L251.9,46.5z"/>
					<path d="M252.8,37.6l-0.7-0.9c0.8-0.3,1.4-1,1.4-1.6c0-0.6-0.3-0.4-0.6-0.6c-0.3-0.2-0.7-0.5-0.7-1.2s0.7-1.6,1.5-1.6
						c0.8,0,1.7,0.9,1.7,2.1C255.4,35.1,254.3,37,252.8,37.6L252.8,37.6L252.8,37.6z"/>
					<path d="M258.5,46.5V32.2h7.8l-0.3,1.6h-5.5v4.4h4.6v1.7h-4.6v4.9h6v1.7L258.5,46.5L258.5,46.5z M260.9,31.5l-0.6-1.1l4.2-2.8
						l0.9,1.8L260.9,31.5L260.9,31.5z"/>
					<path d="M277.6,44.5c-1,1.2-2.3,1.9-4.8,1.9h-3.6V32.1h3.3c2.5,0,4.1,0.6,5.4,2.4c0.9,1.2,1.3,2.8,1.3,4.8
						C279.2,41.2,278.6,43.2,277.6,44.5L277.6,44.5L277.6,44.5z M275.9,35.1c-0.8-1-1.6-1.3-3-1.3h-1.6v11.1h1.6
						c1.6,0,2.7-0.4,3.4-1.6c0.5-1,0.8-2.2,0.8-3.7C277.1,38,276.9,36.1,275.9,35.1L275.9,35.1L275.9,35.1z"/>
					<path d="M291,45c-0.7,0.9-1.9,1.7-4.1,1.7s-3.6-0.7-4.3-2c-0.4-0.7-0.5-1.1-0.5-2.6v-10h2v9.3c0,1,0,2.3,0.5,2.8
						c0.5,0.5,1.1,0.8,2.3,0.8s1.9-0.3,2.3-0.9c0.4-0.5,0.5-1.2,0.5-2.4v-9.6h2V42C291.7,43.8,291.7,44.2,291,45L291,45z"/>
					<path d="M300.8,46.7c-1.9,0-3.4-0.8-4.5-2.1c-1-1.3-1.6-3-1.6-5.1s0.3-3.1,0.9-4.3c1.1-2,3-3.3,5.2-3.3s2.6,0.4,3.5,1.1l-1,1.3
						c-0.8-0.6-1.6-0.8-2.5-0.8c-1.4,0-2.5,0.7-3.2,2.1c-0.5,0.9-0.7,2.1-0.7,3.9s0.2,2.5,0.5,3.4c0.7,1.6,2,2.3,3.5,2.3
						s1.9-0.3,2.6-0.9l1,1.3c-1.1,0.8-2.4,1.2-3.9,1.2L300.8,46.7L300.8,46.7z"/>
					<path d="M315.5,46.5l-1.3-4.1h-5l-1.2,4.1h-2.1l4.7-14.4h2.5l4.6,14.4H315.5z M311.8,34.2L311.8,34.2c-0.2,0.8-1.7,6-2,6.6h4
						C313.6,40,312.1,35,311.8,34.2L311.8,34.2z"/>
					<path d="M326.7,33.9H323v12.7h-2V33.9h-3.7v-1.7h9.6L326.7,33.9L326.7,33.9L326.7,33.9z"/>
					<path d="M328.5,46.5V32.2h2v14.4H328.5z"/>
					<path d="M339.5,46.7c-4,0-5.9-3.1-5.9-7.5s2.3-7.4,5.8-7.4c3.5,0,5.9,3.5,5.9,7.5S343.2,46.6,339.5,46.7L339.5,46.7L339.5,46.7
						z M339.4,33.5c-2.5,0-3.6,1.9-3.6,5.6c0,3.7,0.9,6.2,3.7,6.2s3.5-1.6,3.5-5.6S342.1,33.6,339.4,33.5L339.4,33.5L339.4,33.5z"/>
					<path d="M355.8,46.5l-3.8-7.6c-0.7-1.5-1.5-3.1-1.7-3.9l0,0c0,1.2,0,2.7,0.2,4v7.5h-1.9V32.2h2.3l4,7.9c0.6,1.2,1.3,3,1.4,3.4
						l0,0c0-0.5-0.2-2.7-0.2-4.3v-7h1.9v14.4H355.8L355.8,46.5z"/>
					<path d="M84,72.5V58.1h7.8l-0.3,1.6H86v4.4h4.6v1.7H86v4.9h6v1.7L84,72.5L84,72.5z"/>
					<path d="M102.7,59.8H99v12.7h-2V59.8h-3.7v-1.7h9.6L102.7,59.8C102.7,59.8,102.7,59.8,102.7,59.8z"/>
					<path d="M117.6,70.5c-1,1.2-2.3,1.9-4.8,1.9h-3.6V58h3.3c2.5,0,4.1,0.6,5.4,2.4c0.9,1.2,1.3,2.8,1.3,4.8
						C119.2,67.2,118.6,69.2,117.6,70.5L117.6,70.5L117.6,70.5z M115.9,61c-0.8-1-1.6-1.3-3-1.3h-1.6v11.1h1.6
						c1.6,0,2.7-0.4,3.4-1.6c0.5-1,0.8-2.2,0.8-3.7S116.9,62,115.9,61L115.9,61L115.9,61z"/>
					<path d="M122.3,72.5V58.1h7.8l-0.3,1.6h-5.5v4.4h4.6v1.7h-4.6v4.9h6v1.7L122.3,72.5L122.3,72.5z"/>
					<path d="M144.5,72.5h-7.2V58.1h2v12.7h5.5C144.8,70.8,144.5,72.5,144.5,72.5z"/>
					<path d="M151.7,72.7c-4,0-5.9-3.1-5.9-7.5s2.3-7.4,5.8-7.4c3.5,0,5.9,3.5,5.9,7.5S155.4,72.6,151.7,72.7L151.7,72.7L151.7,72.7
						z M151.6,59.4c-2.5,0-3.6,1.9-3.6,5.6c0,3.7,0.9,6.2,3.7,6.2s3.5-1.6,3.5-5.6S154.3,59.5,151.6,59.4L151.6,59.4L151.6,59.4z"/>
					<path d="M166.2,72.7c-1.9,0-3.4-0.6-4.5-1.9s-1.7-3-1.7-5.4c0-2.4,0.8-4.9,2.5-6.2c1-0.9,2.2-1.2,3.6-1.2s2.9,0.5,4.1,1.4
						l-1,1.2c-1.1-0.8-2-1.1-3.1-1.1c-1.1,0-2.5,0.5-3.1,1.8c-0.7,1.4-0.8,2.4-0.8,4.1c0,1.7,0.4,3.5,1,4.3c0.6,0.8,1.9,1.3,3.1,1.3
						c1.2,0,1.5-0.2,2.1-0.5v-4.1h-2.6l-0.3-1.6h5v6.7C169.3,72.2,167.8,72.6,166.2,72.7L166.2,72.7L166.2,72.7z"/>
					<path d="M179.3,72.7c-4,0-5.9-3.1-5.9-7.5s2.3-7.4,5.8-7.4c3.5,0,5.9,3.5,5.9,7.5S183,72.6,179.3,72.7L179.3,72.7L179.3,72.7z
						 M179.2,59.4c-2.5,0-3.6,1.9-3.6,5.6c0,3.7,0.9,6.2,3.7,6.2c2.8,0,3.5-1.6,3.5-5.6S181.9,59.5,179.2,59.4L179.2,59.4
						L179.2,59.4z"/>
					<path d="M195.6,66c-0.7,0.6-1.5,0.9-3,0.9h-2.4v5.6h-2V58.1h3.8c1.9,0,2.6,0.2,3.4,0.7c1.2,0.8,1.9,2,1.9,3.5
						C197.3,63.8,196.8,65,195.6,66L195.6,66L195.6,66z M194.4,60.5c-0.5-0.5-1.2-0.7-2.3-0.7h-1.9v5.5h2.2c1,0,1.6-0.2,2.1-0.8
						c0.4-0.5,0.6-1.1,0.6-1.9C195.1,61.8,194.9,61,194.4,60.5L194.4,60.5L194.4,60.5z"/>
					<path d="M199.7,72.5V58.1h7.8l-0.3,1.6h-5.5v4.4h4.6v1.7h-4.6v4.9h6v1.7L199.7,72.5L199.7,72.5z M202.1,57.4l-0.6-1.1l4.2-2.8
						l0.9,1.8L202.1,57.4L202.1,57.4L202.1,57.4z"/>
					<path d="M218.8,70.5c-1,1.2-2.3,1.9-4.8,1.9h-3.6V58h3.3c2.5,0,4.1,0.6,5.4,2.4c0.9,1.2,1.3,2.8,1.3,4.8
						C220.4,67.2,219.8,69.2,218.8,70.5L218.8,70.5L218.8,70.5z M217.1,61c-0.8-1-1.6-1.3-3-1.3h-1.6v11.1h1.6
						c1.6,0,2.7-0.4,3.4-1.6c0.5-1,0.8-2.2,0.8-3.7S218.1,62,217.1,61L217.1,61L217.1,61z"/>
					<path d="M223.5,72.5V58.1h2v14.4H223.5z"/>
					<path d="M229.3,72.5V58.1h7.8l-0.3,1.6h-5.5v4.4h4.6v1.7h-4.6v4.9h6v1.7L229.3,72.5L229.3,72.5z"/>
				</g>
			</g>
		</g>
	</g>
</g>
</svg>
